<!-- https://icons8.com/icon/set/blog/family-material -->
<svg xmlns="http://www.w3.org/2000/svg" x="0px" y="0px" width="100" height="100" viewBox="0 0 24 24">
<path d="M 6 2 L 6 10 L 8 14 L 10 10 L 10 5 L 20 5 L 20 14 L 8 14 L 9.96875 16.125 L 9.65625 16.34375 L 7 18.1875 L 7 16 L 4 16 L 4 5 L 5 5 L 5 3 L 4 3 C 2.894531 3 2 3.894531 2 5 L 2 16 C 2 17.105469 2.894531 18 4 18 L 5 18 L 5 22 L 10.8125 18 L 20 18 C 21.105469 18 22 17.105469 22 16 L 22 5 C 22 3.894531 21.105469 3 20 3 L 10 3 L 10 2 Z M 8 9 L 9.34375 9.6875 L 8.71875 11 L 7.28125 11 L 6.65625 9.65625 Z"></path>
<!-- <text x="50%" y="50%" dominant-baseline="middle" text-anchor="middle" font-family="Arial" font-size="20" fill="black">blog</text> -->
</svg>